<?xml version="1.0" encoding="UTF-8" standalone="no"?>
<svg width="456" height="456" viewBox="0 0 456 456" version="1.1" xmlns="http://www.w3.org/2000/svg" xmlns:xlink="http://www.w3.org/1999/xlink">
	<defs>
		<!-- Background gradient -->
		<linearGradient id="backgroundGradient" x1="0%" y1="0%" x2="100%" y2="100%">
			<stop offset="0%" stop-color="#8E2DE2"/>
			<stop offset="100%" stop-color="#4A00E0"/>
		</linearGradient>

		<!-- Particle effects -->
		<radialGradient id="particleGlow" cx="50%" cy="50%" r="50%" fx="50%" fy="50%">
			<stop offset="0%" stop-color="#FFFFFF" stop-opacity="0.8"/>
			<stop offset="100%" stop-color="#FFFFFF" stop-opacity="0"/>
		</radialGradient>
	</defs>

	<!-- Background -->
	<rect x="0" y="0" width="456" height="456" fill="url(#backgroundGradient)"/>

	<!-- Abstract mathematical symbols flowing in a circular pattern -->
	<g transform="translate(228, 228)">
		<!-- Orbiting mathematic symbols -->
		<g transform="rotate(15)">
			<text x="120" y="0" font-family="Arial, sans-serif" font-size="24" fill="white" text-anchor="middle" opacity="0.9">+</text>
		</g>
		<g transform="rotate(45)">
			<text x="140" y="0" font-family="Arial, sans-serif" font-size="28" fill="white" text-anchor="middle" opacity="0.8">−</text>
		</g>
		<g transform="rotate(75)">
			<text x="130" y="0" font-family="Arial, sans-serif" font-size="24" fill="white" text-anchor="middle" opacity="0.7">×</text>
		</g>
		<g transform="rotate(105)">
			<text x="150" y="0" font-family="Arial, sans-serif" font-size="30" fill="white" text-anchor="middle" opacity="0.9">÷</text>
		</g>
		<g transform="rotate(135)">
			<text x="120" y="0" font-family="Arial, sans-serif" font-size="26" fill="white" text-anchor="middle" opacity="0.8">=</text>
		</g>
		<g transform="rotate(165)">
			<text x="140" y="0" font-family="Arial, sans-serif" font-size="24" fill="white" text-anchor="middle" opacity="0.7">%</text>
		</g>
		<g transform="rotate(195)">
			<text x="130" y="0" font-family="Arial, sans-serif" font-size="30" fill="white" text-anchor="middle" opacity="0.9">√</text>
		</g>
		<g transform="rotate(225)">
			<text x="120" y="0" font-family="Arial, sans-serif" font-size="26" fill="white" text-anchor="middle" opacity="0.8">π</text>
		</g>
		<g transform="rotate(255)">
			<text x="140" y="0" font-family="Arial, sans-serif" font-size="24" fill="white" text-anchor="middle" opacity="0.7">^</text>
		</g>
		<g transform="rotate(285)">
			<text x="150" y="0" font-family="Arial, sans-serif" font-size="28" fill="white" text-anchor="middle" opacity="0.9">∞</text>
		</g>
		<g transform="rotate(315)">
			<text x="130" y="0" font-family="Arial, sans-serif" font-size="24" fill="white" text-anchor="middle" opacity="0.8">!</text>
		</g>
		<g transform="rotate(345)">
			<text x="140" y="0" font-family="Arial, sans-serif" font-size="26" fill="white" text-anchor="middle" opacity="0.7">( )</text>
		</g>

		<!-- Inner orbiting numbers -->
		<g transform="rotate(30)">
			<text x="70" y="0" font-family="Arial, sans-serif" font-size="20" fill="white" text-anchor="middle" opacity="0.6">1</text>
		</g>
		<g transform="rotate(90)">
			<text x="80" y="0" font-family="Arial, sans-serif" font-size="22" fill="white" text-anchor="middle" opacity="0.7">2</text>
		</g>
		<g transform="rotate(150)">
			<text x="75" y="0" font-family="Arial, sans-serif" font-size="20" fill="white" text-anchor="middle" opacity="0.6">3</text>
		</g>
		<g transform="rotate(210)">
			<text x="85" y="0" font-family="Arial, sans-serif" font-size="22" fill="white" text-anchor="middle" opacity="0.7">4</text>
		</g>
		<g transform="rotate(270)">
			<text x="75" y="0" font-family="Arial, sans-serif" font-size="20" fill="white" text-anchor="middle" opacity="0.6">5</text>
		</g>
		<g transform="rotate(330)">
			<text x="80" y="0" font-family="Arial, sans-serif" font-size="22" fill="white" text-anchor="middle" opacity="0.7">9</text>
		</g>

		<!-- Central glowing element -->
		<circle cx="0" cy="0" r="40" fill="#FFFFFF" opacity="0.2"/>
		<circle cx="0" cy="0" r="30" fill="#FFFFFF" opacity="0.4"/>
		<circle cx="0" cy="0" r="20" fill="#FFFFFF" opacity="0.6"/>

		<!-- Abstract equalizer bars representing calculation in progress -->
		<rect x="-30" y="-5" width="10" height="10" fill="white" opacity="0.8"/>
		<rect x="-15" y="-12" width="10" height="24" fill="white" opacity="0.8"/>
		<rect x="0" y="-18" width="10" height="36" fill="white" opacity="0.9"/>
		<rect x="15" y="-10" width="10" height="20" fill="white" opacity="0.8"/>
		<rect x="30" y="-7" width="10" height="14" fill="white" opacity="0.8"/>
	</g>

	<!-- Particle effects - floating math elements -->
	<circle cx="80" cy="100" r="3" fill="white" opacity="0.6"/>
	<circle cx="370" cy="120" r="2" fill="white" opacity="0.5"/>
	<circle cx="150" cy="350" r="4" fill="white" opacity="0.7"/>
	<circle cx="320" cy="280" r="3" fill="white" opacity="0.6"/>
	<circle cx="210" cy="90" r="2" fill="white" opacity="0.5"/>
	<circle cx="410" cy="220" r="4" fill="white" opacity="0.7"/>
	<circle cx="50" cy="280" r="3" fill="white" opacity="0.6"/>

	<!-- Additional decorative elements -->
	<path d="M50,50 C100,30 150,80 200,50 S300,20 350,50 S400,80 450,50" stroke="white" stroke-width="1" fill="none" opacity="0.3"/>
	<path d="M50,400 C100,380 150,430 200,400 S300,370 350,400 S400,430 450,400" stroke="white" stroke-width="1" fill="none" opacity="0.3"/>
</svg>